<?xml version="1.0" encoding="UTF-8" standalone="no"?>
<!-- Created with Inkscape (http://www.inkscape.org/) -->

<svg
   version="1.1"
   id="svg944"
   xml:space="preserve"
   width="2666.6667"
   height="2666.6667"
   viewBox="0 0 2666.6667 2666.6667"
   sodipodi:docname="FrakturF2020.svg"
   inkscape:version="1.1 (c68e22c387, 2021-05-23)"
   xmlns:inkscape="http://www.inkscape.org/namespaces/inkscape"
   xmlns:sodipodi="http://sodipodi.sourceforge.net/DTD/sodipodi-0.dtd"
   xmlns="http://www.w3.org/2000/svg"
   xmlns:svg="http://www.w3.org/2000/svg"><defs
     id="defs948"><clipPath
       clipPathUnits="userSpaceOnUse"
       id="clipPath958"><path
         d="M 0,2000 H 2000 V 0 H 0 Z"
         id="path956" /></clipPath></defs><sodipodi:namedview
     id="namedview946"
     pagecolor="#ffffff"
     bordercolor="#666666"
     borderopacity="1.0"
     inkscape:pageshadow="2"
     inkscape:pageopacity="0.0"
     inkscape:pagecheckerboard="0"
     showgrid="false"
     inkscape:zoom="0.31199999"
     inkscape:cx="1331.7308"
     inkscape:cy="1334.9359"
     inkscape:window-width="1920"
     inkscape:window-height="1017"
     inkscape:window-x="-8"
     inkscape:window-y="-8"
     inkscape:window-maximized="1"
     inkscape:current-layer="g950" /><g
     id="g950"
     inkscape:groupmode="layer"
     inkscape:label="FrakturF2020"
     transform="matrix(1.3333333,0,0,-1.3333333,0,2666.6667)"><g
       id="g952"
       style="fill:#ff642b;fill-opacity:1"><g
         id="g954"
         clip-path="url(#clipPath958)"
         style="fill:#ff642b;fill-opacity:1"><g
           id="g960"
           transform="translate(1168.0566,1368.4741)"
           style="fill:#ff642b;fill-opacity:1"><path
             d="m 0,0 c 34.007,-19.876 71.854,-32.96 111.134,-35.903 0.236,-0.017 0.472,-0.035 0.71,-0.053 5.803,-0.423 11.484,1.84 15.456,6.086 l 210.096,235.893 c -0.007,0.149 -0.011,0.235 -0.018,0.385 l -17.677,16.542 c -0.105,0.098 -0.266,0.099 -0.37,0 -5.023,-4.825 -10.231,-9.653 -15.623,-14.664 -13.173,-12.022 -26.157,-22.916 -39.141,-32.684 -13.172,-9.769 -25.968,-18.033 -38.387,-24.607 -12.609,-6.575 -23.335,-9.768 -31.991,-9.768 -9.597,0 -21.829,2.442 -36.882,7.326 -3.2,0.939 -6.398,2.066 -9.598,3.193 -12.23,4.321 -25.215,9.58 -38.952,15.591 -17.313,7.701 -35.19,15.966 -53.63,24.606 -18.254,8.641 -35.189,16.907 -50.619,24.607 -28.038,12.961 -56.076,25.546 -84.114,37.568 -28.04,12.022 -57.019,22.917 -86.939,32.684 -19.382,6.575 -38.952,12.398 -58.711,17.281 -19.758,4.884 -40.269,7.326 -61.533,7.326 -37.635,0 -74.33,-6.198 -110.084,-18.784 -35.752,-12.585 -67.178,-31.369 -94.276,-56.54 -23.145,-22.165 -42.903,-46.02 -59.086,-71.753 -9.598,-15.028 -17.877,-30.618 -24.84,-46.773 -16.748,-38.319 -30.109,-78.141 -40.458,-120.028 -0.376,-1.879 0.188,-4.133 1.694,-5.448 l 28.227,-26.297 c 3.198,-2.818 8.091,-1.315 9.22,2.817 6.962,28.364 15.806,55.789 26.532,82.649 10.538,26.297 25.405,50.153 44.222,71.567 2.682,3.164 5.522,6.249 8.469,9.307 15.713,16.305 36.078,27.874 58.365,31.882 12.337,2.219 24.831,3.329 37.604,3.329 18.252,0 40.27,-3.757 65.862,-11.458 25.591,-7.514 52.312,-17.469 80.351,-29.303 28.038,-12.022 56.264,-25.171 84.866,-39.447 25.028,-12.397 48.927,-24.607 71.32,-36.065 3.951,-2.065 3.951,-7.514 0,-9.58 C -121.57,28.523 -143.964,15 -165.792,0.536 c -24.65,-16.342 -47.609,-34.938 -68.873,-55.601 -13.548,-13.148 -26.344,-26.861 -38.387,-40.949 -12.044,-14.276 -22.393,-28.926 -31.05,-44.141 -7.903,-12.022 -13.924,-24.983 -18.252,-38.507 -4.328,-13.713 -6.399,-27.613 -6.399,-41.701 0,-19.723 3.952,-38.883 12.232,-57.291 8.28,-18.596 17.689,-37.191 28.227,-55.6 18.44,-31.745 38.011,-61.987 58.711,-90.913 20.698,-28.928 42.339,-57.479 64.544,-85.843 14.489,-18.596 29.92,-38.883 46.291,-60.672 16.372,-21.79 31.426,-43.203 44.975,-64.616 30.596,-52.416 63.214,-97.604 35.376,-204.557 -7.338,-28.927 -22.016,-54.286 -44.41,-76.075 -22.204,-20.662 -46.667,-37.005 -73.387,-49.027 -26.723,-12.02 -55.136,-18.032 -85.056,-18.032 -32.175,0 -60.21,10.329 -84.483,31.174 -0.005,0.005 -0.011,0.01 -0.017,0.016 -15.614,15.213 -26.149,33.243 -31.981,53.901 -5.834,20.663 -8.844,42.076 -8.844,63.865 0,29.491 3.387,61.799 10.161,97.301 6.774,35.502 14.113,70.064 21.828,103.876 6.095,34.284 61.342,180.028 -68.554,199.551 -12.416,1.866 -25.014,1.849 -37.514,0.668 -19.127,-1.808 -41.337,-6.005 -69.312,-15.198 -8.656,-2.443 -17.312,-5.26 -25.968,-8.265 -25.216,-9.769 -49.867,-21.038 -73.954,-33.437 -21.726,-11.216 -42.706,-23.55 -63.497,-37.002 -0.147,-0.094 -0.167,-0.306 -0.038,-0.425 l 17.997,-16.669 6.083,-5.704 c 0.077,-0.073 0.19,-0.093 0.288,-0.052 6.72,2.792 13.442,5.402 20.349,8.197 16.372,6.575 31.802,9.768 46.292,9.768 12.044,0 23.334,-3.005 33.684,-9.204 5.457,-3.005 10.726,-7.138 15.618,-12.022 8.657,-8.64 14.113,-19.347 16.56,-31.933 4.463,-25.787 4.958,-78.929 2.07,-115.333 -4.553,-63.983 -24.33,-142.496 -1.318,-222.588 7.716,-29.304 22.77,-55.038 44.786,-76.827 20.324,-18.595 44.222,-31.37 71.695,-38.506 27.474,-7.138 55.136,-10.52 83.175,-10.52 122.293,5.069 270.569,63.972 367.373,178.022 48.076,56.638 78.221,127.256 78.301,201.547 0.049,44.529 -9.962,93.143 -41.087,135.849 -0.005,0.008 -0.009,0.016 -0.014,0.022 -18.253,31.555 -38.386,62.167 -60.023,91.656 -20.7,27.801 -42.528,55.412 -65.298,82.461 -2.069,2.254 -1.88,5.823 0.377,7.702 13.362,12.021 27.474,23.48 42.34,34.938 7.527,5.823 14.865,10.142 22.204,13.335 7.34,3.007 14.491,4.885 21.452,5.261 1.318,0.188 2.823,0.188 4.14,0.188 10.727,0 20.323,-2.066 28.981,-6.576 8.842,-4.319 16.934,-9.766 24.65,-16.341 5.834,-5.447 12.419,-13.9 19.57,-25.358 8.716,-13.579 27.882,-15.33 38.914,-3.556 l 83.589,89.21 c 2.07,2.254 1.881,5.823 -0.377,7.889 l -117.422,109.134 c -2.069,2.068 -5.457,2.068 -7.527,0.188 l -122.69,-109.885 -13.925,-12.398 -55.323,-49.776 c -2.447,-2.068 -6.023,-1.88 -8.093,0.563 -14.301,16.154 -27.473,32.683 -39.705,49.589 -13.548,18.596 -25.781,38.319 -36.318,58.982 -7.715,14.276 -14.301,28.739 -19.57,43.391 -5.27,14.651 -7.904,30.241 -7.904,46.583 0,15.216 3.575,29.303 10.726,41.701 7.339,12.585 16.184,24.419 26.909,35.313 16.373,15.216 34.061,27.801 52.878,37.568 16.578,8.701 34.244,16.162 52.856,22.243 0.033,-0.004 0.063,-0.006 0.097,-0.01 z"
             style="fill:#ff642b;fill-opacity:1;fill-rule:nonzero;stroke:none"
             id="path962" /></g></g></g></g></svg>
